<svg width='24' height='24' viewBox='0 0 24 24' xmlns='http://www.w3.org/2000/svg' xmlns:xlink='http://www.w3.org/1999/xlink'><rect width='24' height='24' stroke='none' fill='#000000' opacity='0'/>


<g transform="matrix(0.31 0 0 0.31 12 12)" >
<path style="stroke: none; stroke-width: 1; stroke-dasharray: none; stroke-linecap: butt; stroke-dashoffset: 0; stroke-linejoin: miter; stroke-miterlimit: 4; fill: rgb(0,0,0); fill-rule: nonzero; opacity: 1;" transform=" translate(-31, -32)" d="M 41 0 C 39.347656 0 38 1.347656 38 3 L 38 4.453125 L 16.707031 18 L 7 18 C 4.242188 18 2 20.242188 2 23 L 2 41 C 2 43.757813 4.242188 46 7 46 L 16.585938 46 L 4.292969 58.292969 C 3.902344 58.683594 3.902344 59.316406 4.292969 59.707031 C 4.488281 59.902344 4.742188 60 5 60 C 5.257813 60 5.511719 59.902344 5.707031 59.707031 L 18.359375 47.050781 L 38 59.546875 L 38 61 C 38 62.652344 39.347656 64 41 64 C 42.652344 64 44 62.652344 44 61 L 44 21.414063 L 59.707031 5.707031 C 60.097656 5.316406 60.097656 4.683594 59.707031 4.292969 C 59.316406 3.902344 58.683594 3.902344 58.292969 4.292969 L 44 18.585938 L 44 3 C 44 1.347656 42.652344 0 41 0 Z M 41 2 C 41.550781 2 42 2.449219 42 3 L 42 20.585938 L 18.082031 44.503906 L 18 44.453125 L 18 19.546875 L 22 17.003906 L 22 36 C 22 36.554688 22.449219 37 23 37 C 23.550781 37 24 36.554688 24 36 L 24 16 C 24 15.914063 23.972656 15.839844 23.953125 15.761719 L 38 6.820313 L 38 20.042969 C 38 20.597656 38.449219 21.042969 39 21.042969 C 39.550781 21.042969 40 20.597656 40 20.042969 L 40 3 C 40 2.449219 40.449219 2 41 2 Z M 7 20 L 16 20 L 16 44 L 7 44 C 5.347656 44 4 42.652344 4 41 L 4 23 C 4 21.347656 5.347656 20 7 20 Z M 6.957031 21.042969 C 6.40625 21.042969 5.957031 21.488281 5.957031 22.042969 C 5.957031 22.597656 6.40625 23.042969 6.957031 23.042969 L 8.957031 23.042969 C 9.507813 23.042969 9.957031 22.597656 9.957031 22.042969 C 9.957031 21.488281 9.507813 21.042969 8.957031 21.042969 Z M 42 23.414063 L 42 61 C 42 61.550781 41.550781 62 41 62 C 40.449219 62 40 61.550781 40 61 L 40 29.9375 C 40 29.382813 39.550781 28.9375 39 28.9375 C 38.449219 28.9375 38 29.382813 38 29.9375 L 38 57.179688 L 23.953125 48.238281 C 23.972656 48.160156 24 48.085938 24 48 L 24 46 C 24 45.445313 23.550781 45 23 45 C 22.449219 45 22 45.445313 22 46 L 22 46.996094 L 19.8125 45.605469 Z M 6.957031 26.042969 C 6.40625 26.042969 5.957031 26.488281 5.957031 27.042969 C 5.957031 27.597656 6.40625 28.042969 6.957031 28.042969 L 8.957031 28.042969 C 9.507813 28.042969 9.957031 27.597656 9.957031 27.042969 C 9.957031 26.488281 9.511719 26.042969 8.957031 26.042969 Z M 6.957031 31.042969 C 6.40625 31.042969 5.957031 31.488281 5.957031 32.042969 C 5.957031 32.597656 6.40625 33.042969 6.957031 33.042969 L 8.957031 33.042969 C 9.507813 33.042969 9.957031 32.597656 9.957031 32.042969 C 9.957031 31.488281 9.511719 31.042969 8.957031 31.042969 Z M 6.957031 36.042969 C 6.40625 36.042969 5.957031 36.488281 5.957031 37.042969 C 5.957031 37.597656 6.40625 38.042969 6.957031 38.042969 L 8.957031 38.042969 C 9.507813 38.042969 9.957031 37.597656 9.957031 37.042969 C 9.957031 36.488281 9.511719 36.042969 8.957031 36.042969 Z M 6.957031 41.042969 C 6.40625 41.042969 5.957031 41.488281 5.957031 42.042969 C 5.957031 42.597656 6.40625 43.042969 6.957031 43.042969 L 8.957031 43.042969 C 9.507813 43.042969 9.957031 42.597656 9.957031 42.042969 C 9.957031 41.488281 9.511719 41.042969 8.957031 41.042969 Z" stroke-linecap="round" />
</g>
</svg>